<svg width="525" height="525" viewBox="0 0 525 525" fill="none" xmlns="http://www.w3.org/2000/svg">
<rect width="525" height="525" rx="25" fill="white"/>
<path d="M26 88L31 90L49 97L70 102L84 104L97 105H133L178 102L249 96L269 95H297L325 97L351 102L369 108L382 115L389 123L392 131L393 139L411 149L422 157L431 166L436 176L438 183V197L435 207L429 218L424 224H422L420 211L416 204L404 198L390 195L379 194H350L326 197L306 202L291 208L278 215L266 224L255 235L248 245L240 261L236 275L232 301L227 313L222 319L205 332L190 344L174 356L146 378L133 388L115 402L89 422L75 433L69 438H67L63 427L62 422V389L65 354L70 326L76 302L84 278L94 255L104 237L112 225L122 212L133 200L144 189L161 176L164 174L152 177L133 184L108 196L92 206L79 216L69 225L52 242L54 233L60 218L70 201L79 190L87 181L95 174L112 161L127 152L145 142L168 132L143 137L135 138H106L88 134L75 129L60 121L47 111L36 101L27 90L26 88Z" fill="#0E123C"/>
<path d="M290 215L292 216L283 226L275 240L271 255V275L275 291L281 303L288 312L299 323L314 333L328 343L349 359L368 373L386 387L405 401L423 415L439 427L457 441L469 450L467 454L457 460L446 463H101L88 459L78 452V450L90 441L109 427L126 414L142 402L163 386L182 372L203 356L222 342L232 334L237 335L250 345L266 357L271 359H279L289 353L304 341L307 338L302 336L290 328L280 319L272 311L264 298L259 286L257 277V255L261 242L268 231L276 223L286 217L290 215Z" fill="#0E123C"/>
<path d="M448 176L455 180L466 189L472 194L479 204L484 217L485 222V424L481 437L477 436L449 414L436 404L422 393L404 379L387 366L373 355L360 345L345 333L332 323V321L346 311L366 296L385 282L406 266L425 252L443 238L449 234L429 235L435 228L443 217L448 205L449 201V182L448 176Z" fill="#0E123C"/>
<path d="M356 205H381L397 208L406 212L411 216L414 221L415 225V234L397 248L384 258L363 274L344 288L323 304L308 315L302 313L293 305L286 295L281 283L279 275V258L283 245L288 236L297 226L307 219L320 213L336 208L356 205Z" fill="#0E123C"/>
<path d="M267 57H281L293 63L306 73L323 85V86L303 85H256L225 87V85L239 75L255 63L267 57Z" fill="#0E123C"/>
<path d="M311 119L324 120L338 124L351 131L358 138L360 142H337L329 138L323 131L319 124L311 120V119Z" fill="#FEFEFE"/>
</svg>
