<svg width="540" height="540" viewBox="0 0 540 540" fill="none" xmlns="http://www.w3.org/2000/svg">
<g transform="translate(40.5, 67)">
<path d="M0 31L5 33L23 40L44 45L58 47L71 48H107L152 45L223 39L243 38H271L299 40L325 45L343 51L356 58L363 66L366 74L367 82L385 92L396 100L405 109L410 119L412 126V140L409 150L403 161L398 167H396L394 154L390 147L378 141L364 138L353 137H324L300 140L280 145L265 151L252 158L240 167L229 178L222 188L214 204L210 218L206 244L201 256L196 262L179 275L164 287L148 299L120 321L107 331L89 345L63 365L49 376L43 381H41L37 370L36 365V332L39 297L44 269L50 245L58 221L68 198L78 180L86 168L96 155L107 143L118 132L135 119L138 117L126 120L107 127L82 139L66 149L53 159L43 168L26 185L28 176L34 161L44 144L53 133L61 124L69 117L86 104L101 95L119 85L142 75L117 80L109 81H80L62 77L49 72L34 64L21 54L10 44L1 33L0 31Z" fill="#0E123C"/>
<path d="M264 158L266 159L257 169L249 183L245 198V218L249 234L255 246L262 255L273 266L288 276L302 286L323 302L342 316L360 330L379 344L397 358L413 370L431 384L443 393L441 397L431 403L420 406H75L62 402L52 395V393L64 384L83 370L100 357L116 345L137 329L156 315L177 299L196 285L206 277L211 278L224 288L240 300L245 302H253L263 296L278 284L281 281L276 279L264 271L254 262L246 254L238 241L233 229L231 220V198L235 185L242 174L250 166L260 160L264 158Z" fill="#0E123C"/>
<path d="M422 119L429 123L440 132L446 137L453 147L458 160L459 165V367L455 380L451 379L423 357L410 347L396 336L378 322L361 309L347 298L334 288L319 276L306 266V264L320 254L340 239L359 225L380 209L399 195L417 181L423 177L403 178L409 171L417 160L422 148L423 144V125L422 119Z" fill="#0E123C"/>
<path d="M330 148H355L371 151L380 155L385 159L388 164L389 168V177L371 191L358 201L337 217L318 231L297 247L282 258L276 256L267 248L260 238L255 226L253 218V201L257 188L262 179L271 169L281 162L294 156L310 151L330 148Z" fill="#0E123C"/>
<path d="M241 0H255L267 6L280 16L297 28V29L277 28H230L199 30V28L213 18L229 6L241 0Z" fill="#0E123C"/>
<path d="M285 62L298 63L312 67L325 74L332 81L334 85H311L303 81L297 74L293 67L285 63V62Z" fill="#FEFEFE"/>
</g>
</svg>
