<svg width="619" height="145" viewBox="0 0 619 145" fill="none" xmlns="http://www.w3.org/2000/svg">
<path d="M22.6278 116H2.85511L32.983 28.7273H56.7614L86.8466 116H67.0739L45.2131 48.6705H44.5312L22.6278 116ZM21.392 81.696H68.0966V96.0994H21.392V81.696ZM97.3509 116V28.7273H115.504V61.5398H116.058C116.854 59.7784 118.004 57.9886 119.51 56.1705C121.044 54.3239 123.033 52.7898 125.476 51.5682C127.947 50.3182 131.016 49.6932 134.68 49.6932C139.453 49.6932 143.857 50.9432 147.891 53.4432C151.925 55.9148 155.149 59.6506 157.564 64.6506C159.979 69.6222 161.186 75.858 161.186 83.358C161.186 90.6591 160.007 96.8239 157.649 101.852C155.32 106.852 152.138 110.645 148.104 113.23C144.098 115.787 139.609 117.065 134.638 117.065C131.115 117.065 128.118 116.483 125.646 115.318C123.203 114.153 121.2 112.69 119.638 110.929C118.075 109.139 116.882 107.335 116.058 105.517H115.249V116H97.3509ZM115.121 83.2727C115.121 87.1648 115.661 90.5597 116.74 93.4574C117.82 96.3551 119.382 98.6136 121.428 100.233C123.473 101.824 125.959 102.619 128.885 102.619C131.839 102.619 134.339 101.81 136.385 100.19C138.43 98.5426 139.979 96.2699 141.03 93.3722C142.109 90.446 142.649 87.0795 142.649 83.2727C142.649 79.4943 142.124 76.1705 141.072 73.3011C140.021 70.4318 138.473 68.1875 136.428 66.5682C134.382 64.9489 131.868 64.1392 128.885 64.1392C125.93 64.1392 123.43 64.9205 121.385 66.483C119.368 68.0455 117.82 70.2614 116.74 73.1307C115.661 76 115.121 79.3807 115.121 83.2727ZM203.129 117.278C196.396 117.278 190.6 115.915 185.742 113.188C180.913 110.432 177.191 106.54 174.577 101.511C171.964 96.4545 170.657 90.4744 170.657 83.571C170.657 76.8381 171.964 70.929 174.577 65.8438C177.191 60.7585 180.87 56.7955 185.614 53.9545C190.387 51.1136 195.984 49.6932 202.404 49.6932C206.722 49.6932 210.742 50.3892 214.464 51.7812C218.214 53.1449 221.481 55.2045 224.265 57.9602C227.077 60.7159 229.265 64.1818 230.827 68.358C232.39 72.5057 233.171 77.3636 233.171 82.9318V87.9176H177.901V76.6676H216.083C216.083 74.054 215.515 71.7386 214.379 69.7216C213.242 67.7045 211.665 66.1278 209.648 64.9915C207.66 63.8267 205.344 63.2443 202.702 63.2443C199.947 63.2443 197.504 63.8835 195.373 65.1619C193.271 66.4119 191.623 68.1023 190.43 70.233C189.237 72.3352 188.626 74.679 188.597 77.2642V87.9602C188.597 91.1989 189.194 93.9972 190.387 96.3551C191.609 98.7131 193.327 100.531 195.543 101.81C197.759 103.088 200.387 103.727 203.427 103.727C205.444 103.727 207.29 103.443 208.967 102.875C210.643 102.307 212.077 101.455 213.271 100.318C214.464 99.1818 215.373 97.7898 215.998 96.142L232.788 97.25C231.935 101.284 230.188 104.807 227.546 107.818C224.933 110.801 221.552 113.131 217.404 114.807C213.285 116.455 208.526 117.278 203.129 117.278ZM274.592 117.278C267.972 117.278 262.248 115.872 257.418 113.06C252.617 110.219 248.91 106.27 246.296 101.213C243.683 96.1278 242.376 90.233 242.376 83.5284C242.376 76.767 243.683 70.858 246.296 65.8011C248.91 60.7159 252.617 56.767 257.418 53.9545C262.248 51.1136 267.972 49.6932 274.592 49.6932C281.211 49.6932 286.921 51.1136 291.722 53.9545C296.552 56.767 300.273 60.7159 302.887 65.8011C305.501 70.858 306.808 76.767 306.808 83.5284C306.808 90.233 305.501 96.1278 302.887 101.213C300.273 106.27 296.552 110.219 291.722 113.06C286.921 115.872 281.211 117.278 274.592 117.278ZM274.677 103.216C277.688 103.216 280.202 102.364 282.219 100.659C284.237 98.9261 285.756 96.5682 286.779 93.5852C287.83 90.6023 288.356 87.2074 288.356 83.4006C288.356 79.5938 287.83 76.1989 286.779 73.2159C285.756 70.233 284.237 67.875 282.219 66.142C280.202 64.4091 277.688 63.5426 274.677 63.5426C271.637 63.5426 269.08 64.4091 267.006 66.142C264.961 67.875 263.413 70.233 262.362 73.2159C261.339 76.1989 260.827 79.5938 260.827 83.4006C260.827 87.2074 261.339 90.6023 262.362 93.5852C263.413 96.5682 264.961 98.9261 267.006 100.659C269.08 102.364 271.637 103.216 274.677 103.216ZM336.765 78.1591V116H318.612V50.5455H335.913V62.0938H336.68C338.129 58.2869 340.558 55.2756 343.967 53.0597C347.376 50.8153 351.509 49.6932 356.367 49.6932C360.913 49.6932 364.876 50.6875 368.256 52.6761C371.637 54.6648 374.265 57.5057 376.14 61.1989C378.015 64.8636 378.952 69.2386 378.952 74.3239V116H360.799V77.5625C360.827 73.5568 359.805 70.4318 357.731 68.1875C355.657 65.9148 352.802 64.7784 349.165 64.7784C346.722 64.7784 344.563 65.304 342.688 66.3551C340.842 67.4062 339.393 68.9403 338.342 70.9574C337.319 72.946 336.793 75.3466 336.765 78.1591Z" fill="#0E123C"/>
<path d="M397.568 28.7273H410.182L439.841 101.17H440.864L470.523 28.7273H483.136V116H473.25V49.6932H472.398L445.125 116H435.58L408.307 49.6932H407.455V116H397.568V28.7273ZM522.224 117.534C518.076 117.534 514.312 116.753 510.931 115.19C507.55 113.599 504.866 111.312 502.877 108.33C500.888 105.318 499.894 101.682 499.894 97.4205C499.894 93.6705 500.633 90.6307 502.11 88.3011C503.587 85.9432 505.562 84.0966 508.033 82.7614C510.505 81.4261 513.232 80.4318 516.215 79.7784C519.227 79.0966 522.252 78.5568 525.292 78.1591C529.269 77.6477 532.494 77.2642 534.965 77.0085C537.465 76.7244 539.283 76.2557 540.42 75.6023C541.585 74.9489 542.167 73.8125 542.167 72.1932V71.8523C542.167 67.6477 541.016 64.3807 538.715 62.0511C536.442 59.7216 532.991 58.5568 528.36 58.5568C523.559 58.5568 519.795 59.608 517.067 61.7102C514.34 63.8125 512.423 66.0568 511.315 68.4432L501.769 65.0341C503.474 61.0568 505.746 57.9602 508.587 55.7443C511.457 53.5 514.582 51.9375 517.962 51.0568C521.371 50.1477 524.724 49.6932 528.019 49.6932C530.121 49.6932 532.536 49.9489 535.263 50.4602C538.019 50.9432 540.675 51.9517 543.232 53.4858C545.817 55.0199 547.962 57.3352 549.667 60.4318C551.371 63.5284 552.224 67.6761 552.224 72.875V116H542.167V107.136H541.656C540.974 108.557 539.837 110.077 538.246 111.696C536.656 113.315 534.539 114.693 531.897 115.83C529.255 116.966 526.031 117.534 522.224 117.534ZM523.758 108.5C527.735 108.5 531.087 107.719 533.815 106.156C536.57 104.594 538.644 102.577 540.036 100.105C541.457 97.6335 542.167 95.0341 542.167 92.3068V83.1023C541.741 83.6136 540.803 84.0824 539.354 84.5085C537.934 84.9062 536.286 85.2614 534.411 85.5739C532.565 85.858 530.761 86.1136 528.999 86.3409C527.266 86.5398 525.86 86.7102 524.781 86.8523C522.167 87.1932 519.724 87.7472 517.451 88.5142C515.207 89.2528 513.388 90.375 511.996 91.8807C510.633 93.358 509.951 95.375 509.951 97.9318C509.951 101.426 511.244 104.068 513.829 105.858C516.442 107.619 519.752 108.5 523.758 108.5ZM570.58 116V50.5455H580.636V116H570.58ZM575.693 39.6364C573.733 39.6364 572.043 38.9687 570.622 37.6335C569.23 36.2983 568.534 34.6932 568.534 32.8182C568.534 30.9432 569.23 29.3381 570.622 28.0028C572.043 26.6676 573.733 26 575.693 26C577.653 26 579.33 26.6676 580.722 28.0028C582.142 29.3381 582.852 30.9432 582.852 32.8182C582.852 34.6932 582.142 36.2983 580.722 37.6335C579.33 38.9687 577.653 39.6364 575.693 39.6364ZM609.113 28.7273V116H599.056V28.7273H609.113Z" fill="#0E123C"/>
</svg>
